{"title":"The Outsider (2013) NL Subs DVDRip-NLU002","uid":9308827,"size":736128900,"categoryP":"video","categoryS":"movies","magnet":"?xt=urn:btih:77040f90c7cb327c5cd00720f92ea461f14553af&amp;dn=The+Outsider+%282013%29+NL+Subs+DVDRip-NLU002&amp;tr=udp%3A%2F%2Ftracker.openbittorrent.com%3A80&amp;tr=udp%3A%2F%2Fopen.demonii.com%3A1337&amp;tr=udp%3A%2F%2Ftracker.coppersurfer.tk%3A6969&amp;tr=udp%3A%2F%2Fexodus.desync.com%3A6969","seeders":0,"leechers":0,"uploader":"NLUPPER002","files":-1,"time":1386369921,"description":"The Outsider (2013) NL Subs DVDRip-NLU002\n.\n[IMG]http://imageshack.us/a/img24/8349/bx76.jpg[/IMG]\n.\n94 min  -  Action | Crime | Drama  -  2013 (USA) \n. &lt;a href=&quot;\nhttp://www.imdb.com/title/tt2198241/&quot; rel=&quot;nofollow&quot; target=&quot;_NEW&quot;&gt;\nhttp://www.imdb.com/title/tt2198241/&lt;/a&gt;\n. &lt;a href=&quot;\nhttp://www.moviemeter.nl/film/88449&quot; rel=&quot;nofollow&quot; target=&quot;_NEW&quot;&gt;\nhttp://www.moviemeter.nl/film/88449&lt;/a&gt;\n.\nPLOT\n.\nRevolves around a British military contractor Lex Walker who is told his daughter has died.\nWhen he arrives in Los Angeles and discovers the body is not hers, he begins an investigation. \n.\nSource: Retail\nSubtitles: Dutch White and Yellow.\n.\nScreens: &lt;a href=&quot;\nhttp://imageshack.us/a/img35/9493/undg.png&quot; rel=&quot;nofollow&quot; target=&quot;_NEW&quot;&gt;\nhttp://imageshack.us/a/img35/9493/undg.png&lt;/a&gt; &lt;a href=&quot;\nhttp://imageshack.us/a/img31/3619/j4xx.png&quot; rel=&quot;nofollow&quot; target=&quot;_NEW&quot;&gt;\nhttp://imageshack.us/a/img31/3619/j4xx.png&lt;/a&gt; &lt;a href=&quot;\nhttp://imageshack.us/a/img96/6894/0nw1.png&quot; rel=&quot;nofollow&quot; target=&quot;_NEW&quot;&gt;\nhttp://imageshack.us/a/img96/6894/0nw1.png&lt;/a&gt; &lt;a href=&quot;\nhttp://imageshack.us/a/img39/6808/vwq8.png&quot; rel=&quot;nofollow&quot; target=&quot;_NEW&quot;&gt;\nhttp://imageshack.us/a/img39/6808/vwq8.png&lt;/a&gt; &lt;a href=&quot;\nhttp://imageshack.us/a/img29/7541/2sbf.png&quot; rel=&quot;nofollow&quot; target=&quot;_NEW&quot;&gt;\nhttp://imageshack.us/a/img29/7541/2sbf.png&lt;/a&gt; &lt;a href=&quot;\nhttp://imageshack.us/a/img5/7701/m68a.png]&quot; rel=&quot;nofollow&quot; target=&quot;_NEW&quot;&gt;\nhttp://imageshack.us/a/img5/7701/m68a.png]&lt;/a&gt; &lt;a href=&quot;\nhttp://imageshack.us/a/img30/5526/h253.png&quot; rel=&quot;nofollow&quot; target=&quot;_NEW&quot;&gt;\nhttp://imageshack.us/a/img30/5526/h253.png&lt;/a&gt;\n.\nGeneral\nFormat                                   : MPEG-4\nFormat profile                           : Base Media\nCodec ID                                 : isom\nFile size                                : 695 MiB\nDuration                                 : 1h 30mn\nOverall bit rate mode                    : Variable\nOverall bit rate                         : 1 077 Kbps\n\nVideo\nID                                       : 1\nFormat                                   : AVC\nFormat/Info                              : Advanced Video Codec\nFormat profile                           : &lt;a class=&quot;__cf_email__&quot; href=&quot;/cdn-cgi/l/email-protection&quot; data-cfemail=&quot;eda5848a85ada1dec3dc&quot;&gt;[email&amp;#160;protected]&lt;/a&gt;&lt;script data-cfhash='f9e31' type=&quot;text/javascript&quot;&gt;\n/* &lt;![CDATA[ */!function(){try{var t=&quot;currentScript&quot;in document?document.currentScript:function(){for(var t=document.getElementsByTagName(&quot;script&quot;),e=t.length;e--;)if(t[e].getAttribute(&quot;data-cfhash&quot;))return t[e]}();if(t&amp;&amp;t.previousSibling){var e,r,n,i,c=t.previousSibling,a=c.getAttribute(&quot;data-cfemail&quot;);if(a){for(e=&quot;&quot;,r=parseInt(a.substr(0,2),16),n=2;a.length-n;n+=2)i=parseInt(a.substr(n,2),16)^r,e+=String.fromCharCode(i);e=document.createTextNode(e),c.parentNode.replaceChild(e,c)}t.parentNode.removeChild(t);}}catch(u){}}()/* ]]&gt; */&lt;/script&gt;\nFormat settings, CABAC                   : Yes\nFormat settings, ReFrames                : 10 frames\nCodec ID                                 : avc1\nCodec ID/Info                            : Advanced Video Coding\nDuration                                 : 1h 30mn\nBit rate                                 : 949 Kbps\nMaximum bit rate                         : 4 463 Kbps\nWidth                                    : 640 pixels\nHeight                                   : 352 pixels\nDisplay aspect ratio                     : 16:9\nFrame rate mode                          : Constant\nFrame rate                               : 25.000 fps\nColor space                              : YUV\nChroma subsampling                       : 4:2:0\nBit depth                                : 8 bits\nScan type                                : Progressive\nBits/(Pixel*Frame)                       : 0.169\nStream size                              : 611 MiB (88%)\nWriting library                          : x264 core 93 r1538bm bd72d46\nEncoding settings                        : cabac=1 / ref=10 / deblock=1:-2:-1 / analyse=0x3:0x133 / me=umh / subme=6 / psy=1 / psy_rd=1.00:0.00 / mixed_ref=1 / me_range=16 / chroma_me=1 / trellis=2 / 8x8dct=1 / cqm=0 / deadzone=21,11 / fast_pskip=0 / chroma_qp_offset=-2 / threads=8 / sliced_threads=0 / nr=0 / decimate=1 / interlaced=0 / constrained_intra=0 / bframes=16 / b_pyramid=2 / b_adapt=1 / b_bias=0 / direct=1 / wpredb=1 / wpredp=2 / keyint=250 / keyint_min=25 / scenecut=40 / intra_refresh=0 / rc_lookahead=40 / rc=2pass / mbtree=1 / bitrate=949 / ratetol=1.0 / qcomp=0.60 / qpmin=10 / qpmax=51 / qpstep=4 / cplxblur=20.0 / qblur=0.5 / ip_ratio=1.40 / aq=1:1.00\n\nAudio\nID                                       : 2\nFormat                                   : AAC\nFormat/Info                              : Advanced Audio Codec\nFormat profile                           : LC\nCodec ID                                 : 40\nDuration                                 : 1h 30mn\nBit rate mode                            : Variable\nBit rate                                 : 125 Kbps\nMaximum bit rate                         : 150 Kbps\nChannel(s)                               : 2 channels\nChannel positions                        : Front: L R\nSampling rate                            : 48.0 KHz\nCompression mode                         : Lossy\nStream size                              : 80.8 MiB (12%)\n.\nEnjoy DVDRip by NLU002\n","torrent":{"xt":"urn:btih:77040f90c7cb327c5cd00720f92ea461f14553af","amp;dn":"The+Outsider+%282013%29+NL+Subs+DVDRip-NLU002","amp;tr":["udp%3A%2F%2Ftracker.openbittorrent.com%3A80","udp%3A%2F%2Fopen.demonii.com%3A1337","udp%3A%2F%2Ftracker.coppersurfer.tk%3A6969","udp%3A%2F%2Fexodus.desync.com%3A6969"],"infoHash":"77040f90c7cb327c5cd00720f92ea461f14553af","infoHashBuffer":{"type":"Buffer","data":[119,4,15,144,199,203,50,124,92,208,7,32,249,46,164,97,241,69,83,175]},"announce":[],"urlList":[]}}